<?xml version="1.0" encoding="utf-8"?>
<svg viewBox="0 0 78 78" fill="none" xmlns="http://www.w3.org/2000/svg">
  <defs>
    <linearGradient id="paint0_linear_2261_1248" x1="12.5" y1="14" x2="66" y2="60" gradientUnits="userSpaceOnUse" gradientTransform="matrix(0.624291, 0.46359, -0.779481, 0.316451, 45.918878, 7.236799)">
      <stop style="stop-color: rgb(79, 140, 239);"/>
      <stop offset="1" style="stop-color: rgb(20, 38, 67);"/>
    </linearGradient>
    <linearGradient id="paint1_linear_2261_1248" x1="12.5" y1="14" x2="66" y2="60" gradientUnits="userSpaceOnUse" gradientTransform="matrix(-0.582856, -0.686684, 0.810331, -0.451474, 33.875864, 77.088978)">
      <stop style="stop-color: rgb(255, 133, 51);"/>
      <stop offset="1" style=""/>
    </linearGradient>
  </defs>
  <path fill-rule="evenodd" clip-rule="evenodd" d="M38.9999 1C59.9867 1 77 18.0132 77 38.9999C77 59.9867 59.9867 77 38.9999 77C18.0132 77 1 59.9867 1 38.9999C1 18.0132 18.0132 1 38.9999 1Z" style="stroke: rgb(255, 133, 51); stroke-opacity: 0.71; fill: rgba(34, 44, 59, 0);"/>
  <path d="M29.1774 19C28.3382 19 27.5638 19.4604 27.1501 20.2053L17.0551 38.3845C17.0358 38.4193 17.0174 38.4544 17 38.4898H29.2751C29.6821 38.4898 30.0648 38.687 30.3064 39.0212L32.2824 41.7544L36.28 26.8846C36.6452 25.5263 38.5682 25.6365 38.7819 27.0279L41.7754 46.5178L44.7941 34.32C45.0745 33.1873 46.5596 32.9699 47.1408 33.9767L49.7462 38.4898H62C61.9833 38.4559 61.9658 38.4223 61.9474 38.3891L51.9039 20.2098C51.4909 19.4624 50.7152 19 49.8741 19H29.1774Z" fill="url(#paint0_linear_2261_1248)" style="paint-order: fill; fill-rule: nonzero;"/>
  <path d="M61.8676 40.8666H49.1469C48.6929 40.8666 48.273 40.6217 48.0427 40.2228L46.4284 37.4265L42.7772 52.18C42.4357 53.5598 40.4846 53.4684 40.2686 52.0624L37.2358 32.3162L33.9576 44.5099C33.6745 45.5628 32.3257 45.8187 31.6904 44.94L28.7456 40.8666H17.1328L27.1491 58.7998C27.5636 59.5418 28.3364 60 29.1735 60H49.878C50.717 60 51.4912 59.5399 51.9049 58.7953L61.8676 40.8666Z" fill="url(#paint1_linear_2261_1248)"/>
  <circle cx="14" cy="14" r="8" style="fill: rgb(255, 133, 51);"/>
  <text style="fill: rgb(255, 255, 255); font-family: Arial, sans-serif; font-size: 19px; white-space: pre;" x="9.114" y="19.642">v</text>
</svg>