<?xml version="1.0" encoding="UTF-8"?>
<svg id="logosandtypes_com" data-name="logosandtypes com" xmlns="http://www.w3.org/2000/svg" viewBox="0 0 150 150">
  <defs>
    <style>
      .cls-1 {
        fill: none;
      }

      .cls-2 {
        fill: #ffd200;
      }
    </style>
  </defs>
  <path id="Layer_3" data-name="Layer 3" class="cls-1" d="M0,0H150V150H0V0Z"/>
  <path class="cls-2" d="M76.53,83.77c4.22,0,7.63-3.43,7.63-7.65s-3.42-7.65-7.63-7.65-7.63,3.43-7.63,7.65,3.42,7.65,7.63,7.65Z"/>
  <path class="cls-2" d="M122.2,83.77c4.22,0,7.63-3.43,7.63-7.65s-3.42-7.65-7.63-7.65-7.63,3.43-7.63,7.65,3.42,7.65,7.63,7.65Z"/>
  <path class="cls-2" d="M122.2,128.82c4.22,0,7.63-3.43,7.63-7.65s-3.42-7.65-7.63-7.65-7.63,3.43-7.63,7.65,3.42,7.65,7.63,7.65Z"/>
  <path class="cls-2" d="M138.63,28.89c-1.1-14.78-19.17-21.05-29.24-10.64-2.56,2.64-6.03,4.22-9.72,4.22-4.22,.26-8.36-1.2-11.31-4.3-3.09-3.17-7.39-5.06-12.13-5.06s-9.05,1.96-12.13,5.06c-2.64,2.71-6.18,4.3-9.95,4.3-4.1,.23-8.23-1.08-11.08-4.08-.53-.53-1.06-1.06-1.58-1.51C24.05,3.77,3.8,26.95,18.88,42.54c3.08,2.87,4.37,7.05,4.15,11.17,0,3.77-1.58,7.32-4.29,9.96-6.75,6.38-6.65,17.92,0,24.31,2.71,2.64,4.29,6.19,4.29,9.96v1.73c0,3.69-1.58,7.17-4.22,9.74-10.65,10.3-3.62,28.75,11.31,29.28,5.13,.15,9.72-1.89,12.96-5.28,2.56-2.64,6.03-4.3,9.72-4.3,4.17-.27,8.27,1.17,11.15,4.3,10.02,10.55,28.32,4.21,29.4-10.64,1.1-15.87-18.1-24.37-29.09-13.35-2.64,2.64-6.18,4.22-9.87,4.22-4.22,.25-8.51-.98-11.53-4.15-3.25-3.04-4.72-7.24-4.45-11.62,0-3.77,1.58-7.32,4.29-9.96,3.17-3.1,5.05-7.4,5.05-12.15s-1.96-9.05-5.05-12.15c-2.71-2.64-4.29-6.19-4.29-9.96-.26-4.21,1.2-8.37,4.22-11.31,2.67-2.81,6.33-4.54,10.26-4.53,4.22-.26,8.36,1.2,11.31,4.3,6.35,6.74,17.91,6.65,24.27,0,2.64-2.71,6.18-4.3,9.95-4.3,4.17-.24,8.24,1.25,11.15,4.3,10.85,11.09,30.22,2.77,29.09-13.2v-.02Z"/>
</svg>