<svg width="24" height="24" viewBox="0 0 24 24" fill="none" xmlns="http://www.w3.org/2000/svg">
<g clip-path="url(#clip0_12484_10309)">
<path d="M23.25 12.0002C23.25 7.08769 20.1375 2.9252 15.75 1.3877V22.6127C20.1375 21.0752 23.25 16.9127 23.25 12.0002Z" fill="#ED4C5C"/>
<path d="M0.75 12.0002C0.75 16.9127 3.9 21.0752 8.25 22.6127V1.3877C3.9 2.9252 0.75 7.08769 0.75 12.0002Z" fill="#75A843"/>
<path d="M15.75 1.3875C14.5875 0.975 13.3125 0.75 12 0.75C10.6875 0.75 9.4125 0.975 8.25 1.3875V22.6125C9.4125 23.025 10.6875 23.25 12 23.25C13.3125 23.25 14.5875 23.025 15.75 22.6125V1.3875Z" fill="white"/>
<path d="M15.2624 11.8871C15.2249 11.7746 15.1874 11.9246 15.1874 11.9621C15.1874 11.8496 15.1499 11.7746 15.0749 11.6621C14.9624 11.7746 14.9249 11.9246 14.9249 12.0746C14.8874 11.9621 14.8499 11.8496 14.7374 11.8121C14.8124 11.9246 14.7749 11.9996 14.7749 12.1121C14.7749 12.2621 14.8874 12.3746 14.8874 12.5246C14.8874 12.6746 14.8124 12.7871 14.6999 12.8996V12.7871C14.3249 12.9371 14.3999 13.1246 14.3999 13.4621C14.3999 13.7996 14.2124 13.7246 13.9874 13.9121C14.0249 13.8371 14.0249 13.7246 13.9874 13.6496C13.9874 13.8746 13.6874 13.8746 13.6499 14.0621C13.6124 14.1371 13.6499 14.2871 13.5374 14.3246C13.4624 14.3621 13.3499 14.4371 13.3499 14.5121C13.2749 14.4746 13.1999 14.4746 13.0874 14.4746C13.1249 14.4371 13.1624 14.4371 13.1999 14.3996C12.8249 14.2121 12.7124 14.6246 12.3749 14.6621C12.2624 14.6621 11.9999 14.5121 11.9999 14.6621C12.3374 14.6621 12.4874 14.9621 12.7499 14.9621C12.9749 14.9621 13.1624 14.7746 13.3874 14.7746C13.3499 14.7746 13.2374 14.6996 13.1249 14.6996C13.3124 14.5871 13.4249 14.3621 13.6499 14.3621C14.0249 14.3621 14.2124 14.2871 14.3249 13.9121C14.2874 13.9121 14.2499 13.9121 14.2124 13.9496C14.2124 13.7996 14.3624 13.6121 14.5124 13.5371C14.8874 13.4621 14.8499 13.1621 15.0749 12.8996C14.9999 12.8996 14.9249 12.9371 14.8499 13.0121C14.8499 12.7871 14.8124 12.5621 14.9999 12.4121C15.3749 12.2246 15.3374 12.1496 15.2624 11.8871ZM8.73741 11.8871C8.66241 12.1871 8.62491 12.2621 8.92491 12.4496C9.14991 12.5996 9.07491 12.8246 9.07491 13.0496C8.99991 12.9746 8.96241 12.9371 8.84991 12.9371C9.07491 13.1621 9.03741 13.4996 9.41241 13.5746C9.52491 13.6496 9.71241 13.8371 9.71241 13.9871C9.67491 13.9871 9.63741 13.9496 9.59991 13.9496C9.71241 14.3246 9.89991 14.3996 10.2749 14.3996C10.4999 14.3996 10.6124 14.6246 10.7999 14.7371C10.6874 14.7371 10.5749 14.7746 10.5374 14.8121C10.7624 14.8121 10.9499 15.0371 11.1749 14.9996C11.4374 14.9996 11.6249 14.6996 11.9249 14.6996C11.9249 14.5496 11.6624 14.6996 11.5499 14.6996C11.2499 14.6246 11.1374 14.2496 10.7249 14.3996C10.7624 14.4371 10.7999 14.4746 10.8374 14.4746C10.7624 14.4746 10.6499 14.4371 10.5749 14.5121C10.5374 14.4371 10.4624 14.3621 10.3874 14.3246C10.3124 14.2496 10.3124 14.1371 10.2749 14.0621C10.1999 13.8746 9.93741 13.8371 9.93741 13.6496C9.89991 13.7246 9.89991 13.8371 9.93741 13.9121C9.71241 13.7246 9.52491 13.7996 9.52491 13.4621C9.52491 13.1621 9.59991 12.9371 9.22491 12.7871V12.8996C9.11241 12.7871 9.03741 12.7121 9.03741 12.5246C9.03741 12.3746 9.18741 12.2621 9.14991 12.1121C9.14991 11.9996 9.11241 11.9246 9.18741 11.8121C9.07491 11.8496 9.03741 11.9621 8.99991 12.0746C8.99991 11.9246 8.96241 11.7746 8.84991 11.6621C8.81241 11.7371 8.77491 11.8496 8.73741 11.9621C8.77491 11.8871 8.73741 11.7746 8.73741 11.8871Z" fill="#75A843"/>
<path d="M13.0129 14.1373C12.9379 14.1373 12.9004 14.0623 12.8629 14.0248C12.8629 13.9498 13.1629 13.8748 13.2004 13.8748V13.7998C12.7129 13.9498 11.2504 14.0623 10.9504 13.5373C10.8004 13.7623 10.5379 13.6123 10.2754 13.4248C10.3129 13.4998 10.4629 13.8748 10.4629 13.8373C10.5379 13.8748 11.0254 13.9873 11.0254 14.0998L10.9129 14.2123C11.7004 14.4748 12.1879 14.5498 13.0129 14.1373Z" fill="#428BC1"/>
<path d="M12.525 14.1372C12.5625 14.0997 12.5625 14.0622 12.5625 13.9872L12.525 13.8747C12.6 13.7997 12.525 13.6122 12.4125 13.6497C12.3375 13.6872 12.375 13.6872 12.3 13.6497C12.2625 13.6497 12.2625 13.6122 12.225 13.6122H11.55C11.475 13.6122 11.475 13.5747 11.4 13.5747C11.325 13.5372 11.2875 13.6122 11.25 13.6497C11.25 13.7247 11.2875 13.7247 11.2875 13.7622C11.2875 13.7997 11.25 13.8372 11.25 13.9122C11.25 13.9872 11.2875 14.0247 11.325 14.0622C11.175 14.1747 11.325 14.3622 11.475 14.2497C11.5125 14.3247 11.625 14.3247 11.7375 14.3247H12.15C12.225 14.3247 12.375 14.3622 12.4125 14.2497C12.525 14.4372 12.675 14.2122 12.525 14.1372Z" fill="#ED4C5C"/>
<path d="M13.7254 13.1624C13.4254 12.7874 13.2754 13.3499 12.9379 13.3124C13.0129 12.8624 12.3379 13.0124 12.1504 13.1249C12.1879 13.0874 12.2254 13.0124 12.2629 12.9374C12.1129 12.9374 11.9254 13.0124 11.8129 12.8999C11.5879 12.7499 11.2879 12.6749 11.1004 12.9374C10.9504 12.7124 10.5379 12.4874 10.3129 12.7124C10.3129 12.4874 10.0879 12.1499 9.82536 12.1874C9.52536 12.2249 9.63786 12.5999 9.78786 12.7499C9.90036 12.8624 10.0504 12.8999 10.2004 12.8999C10.2004 12.9749 10.2379 13.0124 10.2754 13.0499C10.4629 13.1999 10.8379 13.2374 11.0254 13.0874C11.0254 13.4624 11.7754 13.4624 11.9629 13.2749C11.8879 13.4624 11.8129 13.8374 12.0754 13.8374C12.3004 13.8374 12.2254 13.6124 12.4129 13.5374C12.5629 13.4624 12.7504 13.4249 12.9004 13.4999C13.1629 13.6499 13.9879 13.6124 13.7254 13.1624Z" fill="#75A843"/>
<path d="M10.6497 12.2251C10.6122 12.1501 10.5372 12.0751 10.5372 12.0751C10.3872 12.1126 10.3872 12.0001 10.3497 11.8876C10.3122 11.7001 10.0497 11.6251 10.0497 11.4751C10.0497 11.3251 10.1997 11.1751 10.0872 11.0251C9.97468 10.8751 9.78719 10.8001 9.78719 10.8751C9.74969 10.9501 9.93719 10.9501 9.93719 11.1376C9.93719 11.3626 9.71219 11.5501 9.97469 11.7376C10.1247 11.9626 10.1247 12.3751 10.3872 12.3751C10.4997 12.3751 10.6122 12.3376 10.6497 12.2251Z" fill="#75A843"/>
<path d="M11.2126 12.0378C11.1376 11.8878 11.2126 11.6628 11.0626 11.5503C10.8751 11.4003 10.5001 11.7003 10.4626 11.3253C10.4626 11.2503 10.8751 10.8003 10.9501 10.7628C11.0626 10.6128 11.0251 10.3503 10.9126 10.2753C10.7626 10.2003 10.7251 10.2753 10.6126 10.4253C10.6501 10.4628 10.8001 10.5378 10.8001 10.5753C10.6876 10.8378 10.3501 10.8753 10.2751 11.1378C10.2001 11.3253 10.2376 11.6253 10.4251 11.7378C10.5376 11.8128 10.6126 11.8128 10.7251 11.8128C11.0626 11.7753 10.8751 11.8503 10.9126 11.9253C10.9126 12.0003 11.0251 12.2628 11.2126 12.0378ZM10.0876 10.2003C10.0876 10.4253 10.3126 10.3878 10.4626 10.3503C10.4626 10.2753 10.4626 10.2003 10.5001 10.1253C10.4251 10.1628 10.3126 10.1628 10.2751 10.1253C10.1626 10.0503 10.5376 9.90033 10.5001 9.90033C10.5001 9.90033 10.1251 10.0878 10.2751 9.86282C10.3126 9.78782 10.3876 9.71283 10.4251 9.63783C10.4626 9.56283 10.3126 9.63783 10.3126 9.63783C10.2751 9.63783 10.2376 9.63782 10.2001 9.67532C9.97513 9.86282 10.0501 9.97533 10.0876 10.2003Z" fill="#75A843"/>
<path d="M14.0626 10.2C13.8751 9.9375 13.1626 9.075 12.1501 9C12.0376 9 11.7376 9.1125 11.6251 9.15C11.2876 9.375 12.0001 9.5625 12.0376 9.7125C12.0376 9.7875 12.0751 9.825 12.0751 9.9C11.9626 9.7125 11.8501 9.6 11.8126 9.525C11.6251 9.6 11.3251 9.4875 11.2876 9.3C11.2501 9.375 11.2501 9.4125 11.1751 9.4875C11.1751 9.375 11.1376 9.375 11.1001 9.3C11.1001 9.4125 11.1001 9.5625 10.9876 9.6C11.0251 9.525 10.9876 9.45 10.9501 9.375C10.9501 9.4875 10.9501 9.5625 10.8751 9.6375C10.9126 9.5625 10.8376 9.525 10.8376 9.45C10.8001 9.75 10.3876 9.8625 10.8001 9.975C10.9501 10.0125 11.0251 9.975 11.1751 10.05C11.2126 10.0875 11.2876 10.1625 11.2876 10.125C11.2876 10.1625 11.1376 10.3125 11.2501 10.35C11.2126 10.3875 11.1001 10.6125 11.1001 10.6125C11.2126 10.6125 11.1376 10.6875 11.0626 10.7625C10.9501 10.95 11.0626 11.1375 11.1001 11.3625C11.1001 11.2875 11.2126 11.4 11.2126 11.5125C11.2126 11.6625 11.3626 11.7375 11.4001 11.85C11.2126 11.6625 11.1751 11.85 11.4001 11.9625C11.2126 11.9625 11.1751 12.075 11.3626 12.15C10.9126 12.15 11.2876 12.3375 11.3626 12.375C11.6626 12.45 11.8876 12.225 11.8876 12.1875C11.8876 12.1875 12.4876 12.7875 12.5251 12.7875C12.5626 12.7875 12.8626 12.6375 12.9376 12.7125C13.0126 12.825 13.0876 12.7125 13.1626 12.75C13.2376 12.825 13.5376 12.75 13.6126 12.7125C13.6501 12.7125 14.0251 12.6375 13.9501 12.5625C13.7626 12.4125 13.5376 12.2625 13.3501 12.1125C13.1626 11.9625 12.9751 11.85 12.8251 11.7C12.7501 11.625 12.7501 11.475 12.7126 11.3625C13.0501 11.7 13.3876 11.8875 13.3501 11.25C13.5751 11.4375 14.0251 12.4875 14.0626 12.4875C14.1751 12.4875 14.0626 11.3625 14.0626 11.25C14.2126 11.4 14.2126 12.6375 14.2501 12.6375C14.4376 12.675 14.7001 11.025 14.0626 10.2Z" fill="#89664C"/>
<path d="M11.3623 12.112C11.3248 12.112 11.1373 11.8495 11.1373 11.812C11.2498 12.262 10.7998 11.9995 10.9123 11.812C10.7623 11.7745 10.3873 11.9995 10.5373 12.2245C10.4623 12.3745 11.0623 12.262 11.0998 12.187C11.2498 12.5245 11.6248 12.1495 11.3623 12.112ZM13.1248 13.237C13.3123 12.9745 12.5248 12.8995 12.5998 12.5995C12.4873 12.6745 12.3373 12.937 12.1873 12.862C12.1123 12.8245 11.8123 13.012 11.9623 13.1245C11.9623 12.9745 12.0373 13.087 12.1498 13.0495C12.1123 13.162 11.9998 13.2745 12.1873 13.3495C12.1123 13.1245 12.4123 13.237 12.3748 13.1245C12.2998 13.0495 12.6373 13.0495 12.6748 13.0495C12.7873 13.0495 13.1623 13.162 13.0123 13.2745C13.0123 13.2745 13.0873 13.2745 13.1248 13.237ZM10.6123 10.012C10.5748 10.087 10.4248 10.1995 10.4248 10.312C10.4248 10.387 10.6123 10.5745 10.6873 10.462C10.4623 10.312 10.7248 10.1995 10.8373 10.1995C10.8748 10.1995 10.8748 10.2745 10.8748 10.2745C10.9123 10.312 11.2123 10.1995 11.1748 10.1245C11.2123 9.97454 10.7248 9.97454 10.6123 10.012Z" fill="#FFCE31"/>
</g>
<defs>
<clipPath id="clip0_12484_10309">
<rect width="24" height="24" fill="white"/>
</clipPath>
</defs>
</svg>
