<svg width="24" height="24" viewBox="0 0 22 22" fill="none" xmlns="http://www.w3.org/2000/svg">
	<g clip-path="url(#clip0_12484_10146)">
		<path
			d="M10.9996 0.6875C8.86931 0.690209 6.7921 1.35261 5.05348 2.58366C3.31485 3.81472 2.00015 5.554 1.29004 7.5625H20.7108C20.0006 5.55376 18.6856 3.8143 16.9467 2.58323C15.2078 1.35215 13.1302 0.689899 10.9996 0.6875Z"
			fill="#479951" />
		<path
			d="M1.29039 7.5625C0.895594 8.66576 0.69171 9.82824 0.6875 11C0.691227 12.1717 0.894602 13.3342 1.28889 14.4375H20.7096C21.1044 13.3342 21.3083 12.1718 21.3125 11C21.3088 9.82832 21.1054 8.66585 20.7111 7.5625H1.29039Z"
			fill="white" />
		<path
			d="M1.28906 14.4375C1.99926 16.4462 3.31419 18.1857 5.05312 19.4168C6.79204 20.6478 8.86959 21.3101 11.0002 21.3125C13.1305 21.3098 15.2077 20.6474 16.9463 19.4163C18.685 18.1853 19.9997 16.446 20.7098 14.4375H1.28906Z"
			fill="#222222" />
		<path
			d="M7.5625 1.28906C5.55376 1.99926 3.8143 3.31419 2.58323 5.05312C1.35215 6.79204 0.689899 8.86959 0.6875 11.0002C0.690209 13.1305 1.35261 15.2077 2.58366 16.9463C3.81472 18.685 5.554 19.9997 7.5625 20.7098V1.28906Z"
			fill="#E74C3C" />
	</g>
	<defs>
		<clipPath id="clip0_12484_10146">
			<rect width="22" height="22" fill="white" />
		</clipPath>
	</defs>
</svg>
