<svg width="24" height="24" viewBox="0 0 24 24" fill="none" xmlns="http://www.w3.org/2000/svg">
<g id="24/usd-united-states" clip-path="url(#clip0_21495_12112)">
<path id="Vector" d="M18 2.475C16.2375 1.3875 14.2125 0.75 12 0.75V2.475H18Z" fill="#ED4C5C"/>
<path id="Vector_2" d="M12 4.20156H20.1C19.4625 3.56406 18.75 2.96406 18 2.47656H12V4.20156Z" fill="white"/>
<path id="Vector_3" d="M12 5.92422H21.4875C21.075 5.28672 20.625 4.72422 20.1375 4.19922H12V5.92422Z" fill="#ED4C5C"/>
<path id="Vector_4" d="M12 7.65078H22.3875C22.125 7.05078 21.825 6.45078 21.4875 5.92578H12V7.65078Z" fill="white"/>
<path id="Vector_5" d="M12 9.37344H22.95C22.8 8.77344 22.6125 8.21094 22.3875 7.64844H12V9.37344Z" fill="#ED4C5C"/>
<path id="Vector_6" d="M12 11.1391H23.2125C23.175 10.5391 23.0625 9.97656 22.95 9.41406H12V11.1391Z" fill="white"/>
<path id="Vector_7" d="M23.2125 11.1367H12V11.9992H0.75C0.75 12.2992 0.75 12.5617 0.7875 12.8617H23.2125C23.25 12.5617 23.25 12.2992 23.25 11.9992C23.25 11.6992 23.25 11.3992 23.2125 11.1367Z" fill="#ED4C5C"/>
<path id="Vector_8" d="M1.04998 14.5883H22.95C23.1 14.0258 23.175 13.4633 23.2125 12.8633H0.787476C0.824976 13.4258 0.899976 14.0258 1.04998 14.5883Z" fill="white"/>
<path id="Vector_9" d="M1.61249 16.3109H22.3875C22.6125 15.7484 22.8 15.1859 22.95 14.5859H1.04999C1.19999 15.1859 1.38749 15.7484 1.61249 16.3109Z" fill="#ED4C5C"/>
<path id="Vector_10" d="M2.51249 18.0375H21.4875C21.825 17.475 22.125 16.9125 22.3875 16.3125H1.61249C1.87499 16.9125 2.17499 17.475 2.51249 18.0375Z" fill="white"/>
<path id="Vector_11" d="M3.86251 19.7641H20.1375C20.625 19.2391 21.1125 18.6391 21.4875 18.0391H2.51251C2.88751 18.6766 3.37501 19.2391 3.86251 19.7641Z" fill="#ED4C5C"/>
<path id="Vector_12" d="M5.96249 21.4867H18.0375C18.825 20.9992 19.5 20.3992 20.1375 19.7617H3.86249C4.49999 20.4367 5.21249 20.9992 5.96249 21.4867Z" fill="white"/>
<path id="Vector_13" d="M12 23.2508C14.2125 23.2508 16.275 22.6133 18.0375 21.4883H5.96252C7.72502 22.6133 9.78752 23.2508 12 23.2508Z" fill="#ED4C5C"/>
<path id="Vector_14" d="M6 2.475C5.2125 2.9625 4.5 3.5625 3.8625 4.2C3.3375 4.725 2.8875 5.325 2.5125 5.925C2.175 6.4875 1.8375 7.05 1.6125 7.65C1.3875 8.2125 1.2 8.775 1.05 9.375C0.9 9.9375 0.825 10.5 0.7875 11.1C0.75 11.4 0.75 11.7 0.75 12H12V0.75C9.7875 0.75 7.7625 1.3875 6 2.475Z" fill="#428BC1"/>
<path id="Vector_15" d="M9.37502 1.125L9.56252 1.6875H10.125L9.67502 2.0625L9.82502 2.625L9.37502 2.2875L8.92502 2.625L9.07502 2.0625L8.62502 1.6875H9.18752L9.37502 1.125ZM10.875 3.375L11.0625 3.9375H11.625L11.175 4.3125L11.325 4.875L10.875 4.5375L10.425 4.875L10.575 4.3125L10.125 3.9375H10.6875L10.875 3.375ZM7.87502 3.375L8.06252 3.9375H8.62502L8.17502 4.3125L8.32502 4.875L7.87502 4.5375L7.42502 4.875L7.57502 4.3125L7.12502 3.9375H7.68752L7.87502 3.375ZM9.37502 5.625L9.56252 6.1875H10.125L9.67502 6.5625L9.82502 7.125L9.37502 6.7875L8.92502 7.125L9.07502 6.5625L8.62502 6.1875H9.18752L9.37502 5.625ZM6.37502 5.625L6.56252 6.1875H7.12502L6.67502 6.5625L6.82502 7.125L6.37502 6.7875L5.92502 7.125L6.07502 6.5625L5.62502 6.1875H6.18752L6.37502 5.625ZM3.37502 5.625L3.56252 6.1875H4.12502L3.67502 6.5625L3.82502 7.125L3.37502 6.7875L2.92502 7.125L3.07502 6.5625L2.62502 6.1875H3.18752L3.37502 5.625ZM10.875 7.875L11.0625 8.4375H11.625L11.175 8.8125L11.325 9.375L10.875 9.0375L10.425 9.375L10.575 8.8125L10.125 8.4375H10.6875L10.875 7.875ZM7.87502 7.875L8.06252 8.4375H8.62502L8.17502 8.8125L8.32502 9.375L7.87502 9.0375L7.42502 9.375L7.57502 8.8125L7.12502 8.4375H7.68752L7.87502 7.875ZM4.87502 7.875L5.06252 8.4375H5.62502L5.17502 8.8125L5.32502 9.375L4.87502 9.0375L4.42502 9.375L4.57502 8.8125L4.12502 8.4375H4.68752L4.87502 7.875ZM9.37502 10.125L9.56252 10.6875H10.125L9.67502 11.0625L9.82502 11.625L9.37502 11.2875L8.92502 11.625L9.07502 11.0625L8.62502 10.6875H9.18752L9.37502 10.125ZM6.37502 10.125L6.56252 10.6875H7.12502L6.67502 11.0625L6.82502 11.625L6.37502 11.2875L5.92502 11.625L6.07502 11.0625L5.62502 10.6875H6.18752L6.37502 10.125ZM3.37502 10.125L3.56252 10.6875H4.12502L3.67502 11.0625L3.82502 11.625L3.37502 11.2875L2.92502 11.625L3.07502 11.0625L2.62502 10.6875H3.18752L3.37502 10.125ZM4.42502 4.875L4.87502 4.5375L5.32502 4.875L5.13752 4.3125L5.58752 3.9375H5.02502L4.87502 3.375L4.68752 3.9375H4.16252L4.61252 4.275L4.42502 4.875ZM1.42502 9.375L1.87502 9.0375L2.32502 9.375L2.13752 8.8125L2.58752 8.4375H2.06252L1.87502 7.875L1.68752 8.4375H1.31252C1.31252 8.475 1.27502 8.5125 1.27502 8.55L1.57502 8.775L1.42502 9.375Z" fill="white"/>
</g>
<defs>
<clipPath id="clip0_21495_12112">
<rect width="24" height="24" fill="white"/>
</clipPath>
</defs>
</svg>
