<svg width="26" height="27" viewBox="0 0 26 27" fill="none" xmlns="http://www.w3.org/2000/svg">
<path d="M13.3906 21.6816L13.3926 21.7002C13.4602 22.1175 13.8495 22.4066 14.2705 22.3486L14.29 22.3457C14.5948 22.2959 14.8423 22.0707 14.9199 21.7705L17.4893 11.8369L18.5449 13.6289L18.5557 13.6465C18.6981 13.8745 18.948 14.0136 19.2178 14.0137H26C25.6451 20.6219 20.3622 25.9204 13.7607 26.3008H12.2393C5.6378 25.9204 0.354905 20.6219 0 14.0137H6.3252L7.99902 16.8555L8.00879 16.873C8.23211 17.2313 8.70244 17.3482 9.06836 17.1328L9.08691 17.1211C9.25558 17.0152 9.37765 16.8486 9.42773 16.6553L11.5596 8.41406L13.3906 21.6816ZM13 0.285156C19.9446 0.285156 25.6184 5.72257 25.998 12.5723H19.5957L17.9229 9.73047L17.9111 9.71094C17.8052 9.54229 17.6386 9.42015 17.4453 9.37012L17.4268 9.36523C17.0151 9.26922 16.5996 9.51923 16.4932 9.93066L14.3613 18.1719L12.5312 4.9043L12.5283 4.88477C12.4785 4.57999 12.2532 4.3326 11.9531 4.25488C11.5355 4.14685 11.109 4.39782 11.001 4.81543L8.43164 14.749L7.37695 12.957L7.36621 12.9395C7.22382 12.7113 6.97305 12.5723 6.70312 12.5723H0.00195312C0.381557 5.72257 6.05543 0.285156 13 0.285156Z" fill="#04FCC5"/>
</svg>
