<svg width="24" height="24" viewBox="0 0 24 24" fill="none" xmlns="http://www.w3.org/2000/svg">
<mask id="mask0_16713_3174" style="mask-type:luminance" maskUnits="userSpaceOnUse" x="1" y="1" width="23" height="23">
<path d="M12.25 23.5C18.4632 23.5 23.5 18.4632 23.5 12.25C23.5 6.0368 18.4632 1 12.25 1C6.0368 1 1 6.0368 1 12.25C1 18.4632 6.0368 23.5 12.25 23.5Z" fill="white"/>
</mask>
<g mask="url(#mask0_16713_3174)">
<path d="M1 1H23.5V23.5H1V1Z" fill="#0052B4"/>
<path d="M12.25 5.40332L12.6147 6.52393H13.7881L12.8345 7.21387L13.1992 8.33887L12.2456 7.64453L11.292 8.33887L11.6567 7.21387L10.7031 6.52393H11.8809L12.25 5.40332ZM7.40723 7.40723L8.46191 7.94336L9.29248 7.1084L9.10791 8.27295L10.1582 8.80908L8.99365 8.99365L8.80908 10.1582L8.27295 9.10352L7.1084 9.29248L7.94336 8.45752L7.40723 7.40723ZM5.40332 12.25L6.52393 11.8853V10.7119L7.21387 11.6655L8.33887 11.3008L7.64453 12.2544L8.33887 13.208L7.21387 12.8433L6.52393 13.7969V12.6191L5.40332 12.25ZM7.40723 17.0928L7.94336 16.0381L7.1084 15.2075L8.27295 15.3921L8.80908 14.3418L8.99365 15.5063L10.1582 15.6909L9.10352 16.2271L9.29248 17.3916L8.45752 16.5566L7.40723 17.0928ZM12.25 19.0967L11.8853 17.9761H10.7119L11.6655 17.2861L11.3008 16.1611L12.2544 16.8555L13.208 16.1611L12.8433 17.2861L13.7969 17.9761H12.6191L12.25 19.0967ZM17.0928 17.0928L16.0381 16.5566L15.2075 17.3916L15.3921 16.2271L14.3418 15.6909L15.5063 15.5063L15.6909 14.3418L16.2271 15.3965L17.3916 15.2075L16.5566 16.0425L17.0928 17.0928ZM19.0967 12.25L17.9761 12.6147V13.7881L17.2861 12.8345L16.1611 13.1992L16.8555 12.2456L16.1611 11.292L17.2861 11.6567L17.9761 10.7031V11.8809L19.0967 12.25ZM17.0928 7.40723L16.5566 8.46191L17.3916 9.29248L16.2271 9.10791L15.6909 10.1582L15.5063 8.99365L14.3418 8.80908L15.3965 8.27295L15.2075 7.1084L16.0425 7.94336L17.0928 7.40723Z" fill="#FFDA44"/>
</g>
</svg>
