<svg width="24" height="24" viewBox="0 0 24 24" fill="none" xmlns="http://www.w3.org/2000/svg">
<path d="M22.4927 11.9736V12.0005C22.4927 17.7874 17.8042 22.4936 12.0005 22.4936C6.19122 22.4936 1.50732 17.7809 1.50732 12.0005V11.9736L12.4412 10.4336L22.4927 11.9736Z" fill="white"/>
<path d="M22.4927 11.9731H1.50732C1.52214 6.21772 6.18751 1.50781 12.0005 1.50781C17.8227 1.50781 22.4778 6.227 22.4927 11.9731Z" fill="#F42525"/>
<path d="M22.4927 11.9736V12.0005C22.4927 17.7874 17.8042 22.4936 12.0005 22.4936C6.19122 22.4936 1.50732 17.7809 1.50732 12.0005V11.9736L12.4412 10.4336L22.4927 11.9736Z" fill="#E1E1E1"/>
<path d="M22.4927 11.9731H1.50732C1.52214 6.21772 6.18751 1.50781 12.0005 1.50781C17.8227 1.50781 22.4778 6.227 22.4927 11.9731Z" fill="#F42525"/>
</svg>
