<svg width="24" height="24" viewBox="0 0 24 24" fill="none" xmlns="http://www.w3.org/2000/svg">
<g clip-path="url(#clip0_17490_20728)">
<path d="M12 0.75C7.3875 0.75 3.4125 3.525 1.6875 7.5H22.3125C20.5875 3.525 16.6125 0.75 12 0.75Z" fill="#3E4347"/>
<path d="M12 23.25C16.6125 23.25 20.5875 20.475 22.3125 16.5H1.6875C3.4125 20.475 7.3875 23.25 12 23.25Z" fill="#75A843"/>
<path d="M23.25 12C23.25 10.95 23.1 9.9375 22.8375 9H1.1625C0.9 9.9375 0.75 10.95 0.75 12C0.75 13.05 0.9 14.0625 1.1625 15H22.8375C23.1 14.0625 23.25 13.05 23.25 12Z" fill="#C94747"/>
<path d="M1.38748 15.75C1.46248 16.0125 1.57498 16.2375 1.68748 16.5H22.3125C22.425 16.2375 22.5375 16.0125 22.6125 15.75C22.6875 15.4875 22.7625 15.2625 22.8375 15H1.16248C1.23748 15.2625 1.31248 15.4875 1.38748 15.75ZM22.6125 8.25C22.5375 7.9875 22.425 7.7625 22.3125 7.5H1.68748C1.57498 7.7625 1.46248 7.9875 1.38748 8.25C1.31248 8.5125 1.23748 8.7375 1.16248 9H22.8375C22.7625 8.7375 22.6875 8.5125 22.6125 8.25Z" fill="white"/>
<path d="M7.57495 19.6141L7.83745 19.7641L15.075 7.23906C15.4875 7.12656 15.7125 6.71406 15.975 6.33906C16.125 6.07656 16.7625 4.98906 17.025 3.60156C15.9375 4.53906 15.3375 5.58906 15.1875 5.88906C14.9625 6.30156 14.7375 6.67656 14.85 7.12656L7.57495 19.6141Z" fill="white"/>
<path d="M16.425 19.6141L16.1625 19.7641L8.92498 7.23906C8.51248 7.12656 8.28748 6.71406 8.02498 6.33906C7.87498 6.07656 7.23748 4.98906 6.97498 3.60156C8.06248 4.53906 8.66248 5.58906 8.81248 5.88906C9.03748 6.30156 9.26248 6.67656 9.14998 7.12656L16.425 19.6141Z" fill="white"/>
<path d="M15 12C15 16.125 12 19.5 12 19.5C12 19.5 9 16.125 9 12C9 7.875 12 4.5 12 4.5C12 4.5 15 7.875 15 12Z" fill="#C94747"/>
<path d="M9.7875 15C10.425 14.3625 10.875 13.275 10.875 12C10.875 10.725 10.4625 9.6375 9.7875 9C9.525 9.8625 9.375 10.9125 9.375 12C9.375 13.0875 9.525 14.1375 9.7875 15ZM14.2125 9C13.575 9.6375 13.125 10.725 13.125 12C13.125 13.275 13.5375 14.3625 14.2125 15C14.475 14.1375 14.625 13.0875 14.625 12C14.625 10.9125 14.475 9.8625 14.2125 9Z" fill="#3E4347"/>
<path d="M12 12.8977C12.3314 12.8977 12.6 12.4947 12.6 11.9977C12.6 11.5006 12.3314 11.0977 12 11.0977C11.6687 11.0977 11.4 11.5006 11.4 11.9977C11.4 12.4947 11.6687 12.8977 12 12.8977Z" fill="white"/>
<path d="M11.775 4.76172C11.55 5.39922 11.4 6.59922 11.4 7.91172C11.4 9.26172 11.55 10.4242 11.775 11.0617C11.85 10.1242 11.925 9.07422 11.925 7.91172C11.925 6.78672 11.8875 5.69922 11.775 4.76172ZM12.225 4.76172C12.45 5.39922 12.6 6.59922 12.6 7.91172C12.6 9.26172 12.45 10.4242 12.225 11.0617C12.15 10.1242 12.075 9.07422 12.075 7.91172C12.075 6.78672 12.1125 5.69922 12.225 4.76172ZM11.775 12.8992C11.55 13.5367 11.4 14.7367 11.4 16.0492C11.4 17.3992 11.55 18.5617 11.775 19.1992C11.85 18.2617 11.925 17.2117 11.925 16.0492C11.925 14.9242 11.8875 13.8367 11.775 12.8992ZM12.225 12.8992C12.45 13.5367 12.6 14.7367 12.6 16.0492C12.6 17.3992 12.45 18.5617 12.225 19.1992C12.15 18.2617 12.075 17.2117 12.075 16.0492C12.075 14.9242 12.1125 13.8367 12.225 12.8992Z" fill="white"/>
</g>
<defs>
<clipPath id="clip0_17490_20728">
<rect width="24" height="24" fill="white"/>
</clipPath>
</defs>
</svg>
