<svg width="24" height="24" viewBox="0 0 24 24" fill="none" xmlns="http://www.w3.org/2000/svg">
<g clip-path="url(#clip0_22559_45124)">
<path d="M21 5.25H12V7.5H22.3125C21.975 6.7125 21.525 5.925 21 5.25Z" fill="#ED4C5C"/>
<path d="M23.025 14.25C23.175 13.5375 23.25 12.7875 23.25 12H0.75C0.75 12.7875 0.825 13.5375 0.975 14.25H23.025Z" fill="#F9F9F9"/>
<path d="M12 0.75V3H18.75C16.875 1.575 14.55 0.75 12 0.75Z" fill="#ED4C5C"/>
<path d="M12 5.25H21C20.3625 4.3875 19.6125 3.6375 18.75 3H12V5.25ZM22.3125 7.5H12V9.75H23.025C22.875 8.9625 22.6125 8.2125 22.3125 7.5Z" fill="#F9F9F9"/>
<path d="M12 9.75V12H23.25C23.25 11.2125 23.175 10.4625 23.025 9.75H12ZM1.68748 16.5H22.3125C22.6125 15.7875 22.875 15.0375 23.025 14.25H0.974976C1.12498 15.0375 1.38748 15.7875 1.68748 16.5Z" fill="#ED4C5C"/>
<path d="M3 18.75H21C21.525 18.075 21.975 17.2875 22.3125 16.5H1.6875C2.025 17.2875 2.475 18.075 3 18.75Z" fill="#F9F9F9"/>
<path d="M3 18.75C3.6375 19.6125 4.3875 20.3625 5.25 21H18.75C19.6125 20.3625 20.3625 19.6125 21 18.75H3Z" fill="#ED4C5C"/>
<path d="M5.25 21C7.125 22.425 9.45 23.25 12 23.25C14.55 23.25 16.875 22.425 18.75 21H5.25Z" fill="#F9F9F9"/>
<path d="M12 0.75C5.775 0.75 0.75 5.775 0.75 12H12V0.75Z" fill="#2A5F9E"/>
<path d="M7.4625 9.6C6.3375 9.6 5.4 8.6625 5.4 7.5C5.4 6.3375 6.3375 5.4 7.4625 5.4C7.9125 5.4 8.2875 5.55 8.625 5.775C8.1375 5.2125 7.4625 4.875 6.675 4.875C5.25 4.875 4.125 6.0375 4.125 7.5C4.125 8.9625 5.2875 10.125 6.675 10.125C7.4625 10.125 8.1375 9.7875 8.625 9.225C8.2875 9.45 7.875 9.6 7.4625 9.6ZM9.75 7.05L10.0125 6.375L9.9375 7.0875L10.4625 6.6L10.0875 7.2375L10.7625 7.0125L10.1625 7.3875L10.875 7.5L10.1625 7.6125L10.7625 7.9875L10.0875 7.7625L10.4625 8.4L9.9375 7.9125L10.0125 8.625L9.75 7.95L9.4875 8.625L9.5625 7.9125L9.0375 8.4L9.4125 7.7625L8.7375 7.9875L9.3375 7.6125L8.625 7.5L9.3375 7.3875L8.7375 7.0125L9.4125 7.2375L9.0375 6.6L9.5625 7.0875L9.4875 6.375L9.75 7.05Z" fill="#FFE62E"/>
</g>
<defs>
<clipPath id="clip0_22559_45124">
<rect width="24" height="24" fill="white"/>
</clipPath>
</defs>
</svg>
