<svg width="24" height="24" viewBox="0 0 24 24" fill="none" xmlns="http://www.w3.org/2000/svg">
<g id="24/peru" clip-path="url(#clip0_16071_6033)">
<path id="Vector" d="M23.25 11.9992C23.25 7.08672 20.1375 2.92422 15.75 1.38672V22.6117C20.1375 21.0742 23.25 16.9117 23.25 11.9992ZM0.75 11.9992C0.75 16.9117 3.9 21.0742 8.25 22.6117V1.38672C3.9 2.92422 0.75 7.08672 0.75 11.9992Z" fill="#ED4C5C"/>
<path id="Vector_2" d="M15.75 1.3875C14.5875 0.975 13.3125 0.75 12 0.75C10.6875 0.75 9.4125 0.975 8.25 1.3875V22.6125C9.4125 23.025 10.6875 23.25 12 23.25C13.3125 23.25 14.5875 23.025 15.75 22.6125V1.3875Z" fill="#F9F9F9"/>
</g>
<defs>
<clipPath id="clip0_16071_6033">
<rect width="24" height="24" fill="white"/>
</clipPath>
</defs>
</svg>
