<svg width="24" height="24" viewBox="0 0 24 24" fill="none" xmlns="http://www.w3.org/2000/svg">
<g clip-path="url(#clip0_16961_1849)">
<path d="M22.8375 14.9984C23.1 14.0609 23.25 13.0484 23.25 11.9984C23.25 10.9484 23.1 9.93594 22.8375 8.99844H11.8875L5.55001 2.77344C4.05001 3.82344 2.81251 5.24844 1.95001 6.89844L7.12501 11.9984L1.98751 17.0984C2.81251 18.7484 4.05001 20.1734 5.58751 21.2234L11.8875 14.9984H22.8375Z" fill="#699635"/>
<path d="M1.3125 8.4375C0.9375 9.5625 0.75 10.7625 0.75 12C0.75 13.2375 0.9375 14.4375 1.3125 15.5625L4.9125 12L1.3125 8.4375Z" fill="#3E4347"/>
<path d="M6.86249 22.0109C8.39999 22.7984 10.1625 23.2484 12 23.2484C16.6125 23.2484 20.5875 20.4734 22.3125 16.4609H12.525L6.86249 22.0109Z" fill="#428BC1"/>
<path d="M22.3125 7.5375C20.5875 3.525 16.6125 0.75 12 0.75C10.1625 0.75 8.39999 1.2 6.86249 1.9875L12.525 7.5375H22.3125Z" fill="#ED4C5C"/>
<path d="M22.6875 8.51328C22.575 8.17578 22.4625 7.83828 22.3125 7.53828H12.525L6.86249 1.98828C6.59999 2.10078 6.37499 2.25078 6.11249 2.40078C5.92499 2.51328 5.73749 2.66328 5.54999 2.77578L11.8875 9.00078H22.8375C22.8 8.85078 22.7625 8.66328 22.6875 8.51328Z" fill="white"/>
<path d="M1.98748 6.89844C1.94998 6.97344 1.91248 7.04844 1.87498 7.16094C1.68748 7.57344 1.49998 7.98594 1.34998 8.43594L4.94998 11.9984L1.34998 15.5609C1.49998 16.0109 1.64998 16.4234 1.87498 16.8359C1.91248 16.9109 1.94998 16.9859 1.98748 17.0984L7.12498 11.9984L1.98748 6.89844Z" fill="#FFCE31"/>
<path d="M11.8875 15L5.54999 21.225C5.66249 21.3 5.81249 21.4125 5.92499 21.4875C6.22499 21.675 6.52499 21.8625 6.86249 22.0125L12.525 16.4625H22.3125C22.4625 16.0875 22.6125 15.7125 22.7625 15.3C22.8 15.1875 22.8 15.1125 22.8375 15H11.8875Z" fill="white"/>
</g>
<defs>
<clipPath id="clip0_16961_1849">
<rect width="24" height="24" fill="white"/>
</clipPath>
</defs>
</svg>
